<mxfile host="app.diagrams.net" modified="2023-09-13T18:31:26.430Z" agent="Mozilla/5.0 (Windows NT 10.0; Win64; x64) AppleWebKit/537.36 (KHTML, like Gecko) Chrome/116.0.0.0 Safari/537.36" etag="ShEdcIMDlm4qWpHbgOaR" version="21.7.5" type="device">
  <diagram name="Page-1" id="RaUQRW57c_f_P_pm449L">
    <mxGraphModel dx="1730" dy="1660" grid="1" gridSize="10" guides="1" tooltips="1" connect="1" arrows="1" fold="1" page="1" pageScale="1" pageWidth="850" pageHeight="1100" math="0" shadow="0">
      <root>
        <mxCell id="0" />
        <mxCell id="1" parent="0" />
        <mxCell id="9E2nI4QwyERjYsjQVY-a-7" style="edgeStyle=orthogonalEdgeStyle;rounded=0;orthogonalLoop=1;jettySize=auto;html=1;exitX=0.5;exitY=1;exitDx=0;exitDy=0;entryX=0.5;entryY=0;entryDx=0;entryDy=0;" parent="1" source="9E2nI4QwyERjYsjQVY-a-1" target="9E2nI4QwyERjYsjQVY-a-2" edge="1">
          <mxGeometry relative="1" as="geometry" />
        </mxCell>
        <mxCell id="9E2nI4QwyERjYsjQVY-a-15" style="edgeStyle=orthogonalEdgeStyle;rounded=0;orthogonalLoop=1;jettySize=auto;html=1;entryX=1;entryY=0.5;entryDx=0;entryDy=0;" parent="1" source="9E2nI4QwyERjYsjQVY-a-1" target="9E2nI4QwyERjYsjQVY-a-9" edge="1">
          <mxGeometry relative="1" as="geometry" />
        </mxCell>
        <mxCell id="9E2nI4QwyERjYsjQVY-a-16" style="edgeStyle=orthogonalEdgeStyle;rounded=0;orthogonalLoop=1;jettySize=auto;html=1;entryX=0;entryY=0.5;entryDx=0;entryDy=0;" parent="1" source="9E2nI4QwyERjYsjQVY-a-1" target="9E2nI4QwyERjYsjQVY-a-10" edge="1">
          <mxGeometry relative="1" as="geometry" />
        </mxCell>
        <mxCell id="9E2nI4QwyERjYsjQVY-a-1" value="1: Menu principal" style="ellipse;whiteSpace=wrap;html=1;" parent="1" vertex="1">
          <mxGeometry x="160" y="80" width="120" height="80" as="geometry" />
        </mxCell>
        <mxCell id="9E2nI4QwyERjYsjQVY-a-6" style="edgeStyle=orthogonalEdgeStyle;rounded=0;orthogonalLoop=1;jettySize=auto;html=1;exitX=0.5;exitY=1;exitDx=0;exitDy=0;entryX=0.5;entryY=0;entryDx=0;entryDy=0;" parent="1" source="9E2nI4QwyERjYsjQVY-a-2" target="9E2nI4QwyERjYsjQVY-a-3" edge="1">
          <mxGeometry relative="1" as="geometry" />
        </mxCell>
        <mxCell id="9E2nI4QwyERjYsjQVY-a-14" style="edgeStyle=orthogonalEdgeStyle;rounded=0;orthogonalLoop=1;jettySize=auto;html=1;exitX=1;exitY=0;exitDx=0;exitDy=0;entryX=1;entryY=0.5;entryDx=0;entryDy=0;" parent="1" source="9E2nI4QwyERjYsjQVY-a-2" target="9E2nI4QwyERjYsjQVY-a-8" edge="1">
          <mxGeometry relative="1" as="geometry">
            <Array as="points">
              <mxPoint x="450" y="242" />
              <mxPoint x="450" y="650" />
            </Array>
          </mxGeometry>
        </mxCell>
        <mxCell id="9E2nI4QwyERjYsjQVY-a-2" value="2: Piano - Esperando Nota" style="ellipse;whiteSpace=wrap;html=1;" parent="1" vertex="1">
          <mxGeometry x="160" y="230" width="120" height="80" as="geometry" />
        </mxCell>
        <mxCell id="9E2nI4QwyERjYsjQVY-a-5" style="edgeStyle=orthogonalEdgeStyle;rounded=0;orthogonalLoop=1;jettySize=auto;html=1;exitX=1;exitY=0.5;exitDx=0;exitDy=0;" parent="1" source="9E2nI4QwyERjYsjQVY-a-3" target="9E2nI4QwyERjYsjQVY-a-2" edge="1">
          <mxGeometry relative="1" as="geometry">
            <Array as="points">
              <mxPoint x="390" y="440" />
              <mxPoint x="390" y="270" />
            </Array>
          </mxGeometry>
        </mxCell>
        <mxCell id="9E2nI4QwyERjYsjQVY-a-3" value="3: Tocar uma nota" style="ellipse;whiteSpace=wrap;html=1;" parent="1" vertex="1">
          <mxGeometry x="160" y="400" width="120" height="80" as="geometry" />
        </mxCell>
        <mxCell id="9E2nI4QwyERjYsjQVY-a-8" value="255:&amp;nbsp; Reset" style="ellipse;whiteSpace=wrap;html=1;" parent="1" vertex="1">
          <mxGeometry x="160" y="610" width="120" height="80" as="geometry" />
        </mxCell>
        <mxCell id="9E2nI4QwyERjYsjQVY-a-12" style="edgeStyle=orthogonalEdgeStyle;rounded=0;orthogonalLoop=1;jettySize=auto;html=1;entryX=0;entryY=0.5;entryDx=0;entryDy=0;" parent="1" source="9E2nI4QwyERjYsjQVY-a-9" target="9E2nI4QwyERjYsjQVY-a-2" edge="1">
          <mxGeometry relative="1" as="geometry">
            <Array as="points">
              <mxPoint x="60" y="270" />
            </Array>
          </mxGeometry>
        </mxCell>
        <mxCell id="9E2nI4QwyERjYsjQVY-a-9" value="100:&amp;nbsp; MSG Piano Mode" style="ellipse;whiteSpace=wrap;html=1;" parent="1" vertex="1">
          <mxGeometry x="-10" y="80" width="120" height="80" as="geometry" />
        </mxCell>
        <mxCell id="9E2nI4QwyERjYsjQVY-a-13" style="edgeStyle=orthogonalEdgeStyle;rounded=0;orthogonalLoop=1;jettySize=auto;html=1;exitX=0.5;exitY=1;exitDx=0;exitDy=0;" parent="1" source="9E2nI4QwyERjYsjQVY-a-10" target="9E2nI4QwyERjYsjQVY-a-11" edge="1">
          <mxGeometry relative="1" as="geometry" />
        </mxCell>
        <mxCell id="9E2nI4QwyERjYsjQVY-a-10" value="101:&amp;nbsp; MSG Composer Mode" style="ellipse;whiteSpace=wrap;html=1;" parent="1" vertex="1">
          <mxGeometry x="480" y="80" width="120" height="80" as="geometry" />
        </mxCell>
        <mxCell id="n5OgFy36vg58BfD2xV5z-4" style="edgeStyle=orthogonalEdgeStyle;rounded=0;orthogonalLoop=1;jettySize=auto;html=1;" edge="1" parent="1" source="9E2nI4QwyERjYsjQVY-a-11" target="n5OgFy36vg58BfD2xV5z-3">
          <mxGeometry relative="1" as="geometry" />
        </mxCell>
        <mxCell id="n5OgFy36vg58BfD2xV5z-7" style="edgeStyle=orthogonalEdgeStyle;rounded=0;orthogonalLoop=1;jettySize=auto;html=1;entryX=0.992;entryY=0.725;entryDx=0;entryDy=0;entryPerimeter=0;" edge="1" parent="1" source="9E2nI4QwyERjYsjQVY-a-11" target="9E2nI4QwyERjYsjQVY-a-8">
          <mxGeometry relative="1" as="geometry">
            <mxPoint x="540" y="660" as="targetPoint" />
            <Array as="points">
              <mxPoint x="540" y="668" />
            </Array>
          </mxGeometry>
        </mxCell>
        <mxCell id="9E2nI4QwyERjYsjQVY-a-11" value="50:&amp;nbsp; Composer Mode" style="ellipse;whiteSpace=wrap;html=1;" parent="1" vertex="1">
          <mxGeometry x="480" y="230" width="120" height="80" as="geometry" />
        </mxCell>
        <mxCell id="n5OgFy36vg58BfD2xV5z-2" style="edgeStyle=orthogonalEdgeStyle;rounded=0;orthogonalLoop=1;jettySize=auto;html=1;" edge="1" parent="1" source="n5OgFy36vg58BfD2xV5z-1">
          <mxGeometry relative="1" as="geometry">
            <mxPoint x="210" y="70" as="targetPoint" />
          </mxGeometry>
        </mxCell>
        <mxCell id="n5OgFy36vg58BfD2xV5z-1" value="0: Carrega Menu" style="ellipse;whiteSpace=wrap;html=1;" vertex="1" parent="1">
          <mxGeometry x="150" y="-60" width="120" height="70" as="geometry" />
        </mxCell>
        <mxCell id="n5OgFy36vg58BfD2xV5z-5" style="edgeStyle=orthogonalEdgeStyle;rounded=0;orthogonalLoop=1;jettySize=auto;html=1;entryX=1;entryY=0;entryDx=0;entryDy=0;" edge="1" parent="1" source="n5OgFy36vg58BfD2xV5z-3" target="9E2nI4QwyERjYsjQVY-a-11">
          <mxGeometry relative="1" as="geometry">
            <mxPoint x="720" y="180" as="targetPoint" />
            <Array as="points">
              <mxPoint x="720" y="200" />
              <mxPoint x="582" y="200" />
            </Array>
          </mxGeometry>
        </mxCell>
        <mxCell id="n5OgFy36vg58BfD2xV5z-3" value="4: Playing composition" style="ellipse;whiteSpace=wrap;html=1;" vertex="1" parent="1">
          <mxGeometry x="660" y="230" width="120" height="80" as="geometry" />
        </mxCell>
      </root>
    </mxGraphModel>
  </diagram>
</mxfile>
